<svg width="2000" height="2000" viewBox="0 0 2000 2000" fill="none" xmlns="http://www.w3.org/2000/svg">
<rect width="2000" height="2000" rx="400" fill="black"/>
<path d="M1066.13 1190.26L1254.69 808.3C1273.68 769.839 1312.89 745.486 1355.83 745.486C1439.65 745.486 1494.16 833.586 1456.68 908.464L1240.31 1340.67C1202.74 1415.71 1257.37 1504 1341.38 1504C1384.12 1504 1423.21 1479.91 1442.37 1441.75L1753.7 822.049C1829.13 671.903 1719.83 495 1551.64 495H796.661C711.032 495 632.751 543.32 594.456 619.814L234.162 1339.5C196.327 1415.08 251.351 1504 335.953 1504C378.983 1504 418.333 1479.76 437.649 1441.36L757.008 806.389C775.786 769.052 814.044 745.486 855.879 745.486C938.13 745.486 991.626 831.936 954.842 905.412L862.736 1089.4C824.988 1164.8 879.886 1253.51 964.293 1253.51C1007.53 1253.51 1047.01 1228.99 1066.13 1190.26Z" fill="white"/>
</svg>
