<svg width="441" height="286" viewBox="0 0 441 286" fill="none" xmlns="http://www.w3.org/2000/svg">
<path d="M238.97 197.071L292.351 88.8046C297.726 77.903 308.826 71 320.981 71C344.71 71 360.144 95.972 349.532 117.196L288.278 239.704C277.643 260.974 293.11 286 316.89 286C328.991 286 340.056 279.172 345.482 268.357L433.617 92.7017C454.971 50.1429 424.029 0 376.414 0H162.684C138.443 0 116.282 13.6962 105.441 35.3783L3.4429 239.374C-7.26795 260.796 8.30926 286 32.2594 286C44.4411 286 55.5811 279.129 61.0492 268.244L151.458 88.2628C156.774 77.6797 167.605 71 179.448 71C202.733 71 217.878 95.5043 207.464 116.331L181.389 168.481C170.703 189.853 186.245 215 210.14 215C222.38 215 233.557 208.049 238.97 197.071Z" fill="white"/>
</svg>
